<svg xmlns="http://www.w3.org/2000/svg" width="1000" height="1000" fill="none" version="1.1" viewBox="0 0 1000 1000">
    <path d="M892.857 142.857 691.886 347.186l-43.786 -43.071 200.971 -204.321zm-188.171 1.557L403.229 450.907l-43.786 -43.064 301.457 -306.493zM264.343 315.221c38.036 -38.45 76.071 -76.893 154.064 -156.193l43.786 43.071C384.143 281.457 346.064 319.936 308 358.407c-31.429 31.779 -62.857 63.55 -116.85 118.379l228.407 59.7 185.486 -188.586 43.786 43.071 -185.486 188.579 63.621 227.914 300.986 -300.621 43.4 43.45 -350.779 350.357 -327.407 -90.2 -95.671 -326.043 12.65 -12.857A63250 63250 0 0 1 264.343 315.214zm202.993 507.071 -63.186 -226.35 -227.364 -59.429 65.679 223.821zm340.957 -403.693 50.871 -50.871 -43.429 -43.429 -51.05 51.057 -215.507 219.1 43.786 43.064z" clip-rule="evenodd" fill="url(#paint2_linear)" fill-rule="evenodd"/>
</svg>
